<mxfile host="app.diagrams.net" modified="2023-11-09T00:54:41.506Z" agent="Mozilla/5.0 (Windows NT 10.0; Win64; x64) AppleWebKit/537.36 (KHTML, like Gecko) Chrome/117.0.0.0 Safari/537.36" etag="wXXJ4o9MHZeE4KN9NeW2" version="22.1.0" type="github">
  <diagram name="Page-1" id="V0f2GqODbFreL2q9t-2A">
    <mxGraphModel dx="1434" dy="758" grid="1" gridSize="10" guides="1" tooltips="1" connect="1" arrows="1" fold="1" page="1" pageScale="1" pageWidth="827" pageHeight="1169" math="0" shadow="0">
      <root>
        <mxCell id="0" />
        <mxCell id="1" parent="0" />
        <mxCell id="RL7_sL3tnGUBL_hxtS6m-1" value="" style="rounded=0;whiteSpace=wrap;html=1;" parent="1" vertex="1">
          <mxGeometry x="470" y="70" width="120" height="60" as="geometry" />
        </mxCell>
        <mxCell id="RL7_sL3tnGUBL_hxtS6m-3" value="" style="shape=datastore;whiteSpace=wrap;html=1;" parent="1" vertex="1">
          <mxGeometry x="340" y="70" width="60" height="60" as="geometry" />
        </mxCell>
        <mxCell id="RL7_sL3tnGUBL_hxtS6m-4" value="" style="endArrow=classic;startArrow=classic;html=1;rounded=0;" parent="1" edge="1">
          <mxGeometry width="50" height="50" relative="1" as="geometry">
            <mxPoint x="630" y="120" as="sourcePoint" />
            <mxPoint x="680" y="70" as="targetPoint" />
          </mxGeometry>
        </mxCell>
        <mxCell id="RL7_sL3tnGUBL_hxtS6m-5" value="" style="endArrow=classic;html=1;rounded=0;" parent="1" edge="1">
          <mxGeometry width="50" height="50" relative="1" as="geometry">
            <mxPoint x="720" y="125" as="sourcePoint" />
            <mxPoint x="770" y="75" as="targetPoint" />
          </mxGeometry>
        </mxCell>
        <mxCell id="RL7_sL3tnGUBL_hxtS6m-10" value="" style="endArrow=classic;html=1;rounded=0;" parent="1" edge="1">
          <mxGeometry relative="1" as="geometry">
            <mxPoint x="50" y="30" as="sourcePoint" />
            <mxPoint x="180" y="30" as="targetPoint" />
          </mxGeometry>
        </mxCell>
        <mxCell id="RL7_sL3tnGUBL_hxtS6m-11" value="Label" style="edgeLabel;resizable=0;html=1;align=center;verticalAlign=middle;" parent="RL7_sL3tnGUBL_hxtS6m-10" connectable="0" vertex="1">
          <mxGeometry relative="1" as="geometry" />
        </mxCell>
        <mxCell id="RL7_sL3tnGUBL_hxtS6m-12" value="Source" style="edgeLabel;resizable=0;html=1;align=left;verticalAlign=bottom;" parent="RL7_sL3tnGUBL_hxtS6m-10" connectable="0" vertex="1">
          <mxGeometry x="-1" relative="1" as="geometry" />
        </mxCell>
        <mxCell id="RL7_sL3tnGUBL_hxtS6m-13" value="Target" style="edgeLabel;resizable=0;html=1;align=right;verticalAlign=bottom;" parent="RL7_sL3tnGUBL_hxtS6m-10" connectable="0" vertex="1">
          <mxGeometry x="1" relative="1" as="geometry" />
        </mxCell>
        <mxCell id="RL7_sL3tnGUBL_hxtS6m-14" value="" style="endArrow=classic;html=1;rounded=0;" parent="1" edge="1">
          <mxGeometry relative="1" as="geometry">
            <mxPoint x="60" y="69" as="sourcePoint" />
            <mxPoint x="160" y="69" as="targetPoint" />
          </mxGeometry>
        </mxCell>
        <mxCell id="RL7_sL3tnGUBL_hxtS6m-15" value="Label" style="edgeLabel;resizable=0;html=1;align=center;verticalAlign=middle;" parent="RL7_sL3tnGUBL_hxtS6m-14" connectable="0" vertex="1">
          <mxGeometry relative="1" as="geometry" />
        </mxCell>
        <mxCell id="RL7_sL3tnGUBL_hxtS6m-16" value="Sub Topic" style="whiteSpace=wrap;html=1;rounded=1;arcSize=50;align=center;verticalAlign=middle;strokeWidth=1;autosize=1;spacing=4;treeFolding=1;treeMoving=1;newEdgeStyle={&quot;edgeStyle&quot;:&quot;entityRelationEdgeStyle&quot;,&quot;startArrow&quot;:&quot;none&quot;,&quot;endArrow&quot;:&quot;none&quot;,&quot;segment&quot;:10,&quot;curved&quot;:1,&quot;sourcePerimeterSpacing&quot;:0,&quot;targetPerimeterSpacing&quot;:0};" parent="1" vertex="1">
          <mxGeometry x="580" y="10" width="100" height="30" as="geometry" />
        </mxCell>
        <mxCell id="RL7_sL3tnGUBL_hxtS6m-17" value="" style="edgeStyle=entityRelationEdgeStyle;startArrow=none;endArrow=none;segment=10;curved=1;sourcePerimeterSpacing=0;targetPerimeterSpacing=0;rounded=0;" parent="1" target="RL7_sL3tnGUBL_hxtS6m-16" edge="1">
          <mxGeometry relative="1" as="geometry">
            <mxPoint x="550" y="52" as="sourcePoint" />
          </mxGeometry>
        </mxCell>
      </root>
    </mxGraphModel>
  </diagram>
</mxfile>
